<svg preserveAspectRatio="none" width="100%" height="100%" overflow="visible" style="display: block;" viewBox="0 0 208.002 20" fill="none" xmlns="http://www.w3.org/2000/svg">
<g id="Group 25">
<path id="Vector" d="M16.9459 20L10.4522 16.7251L3.95858 19.9415L5.05061 12.768L0 7.58285L7.15665 6.41326L10.5302 0L13.8453 6.43275L21.002 7.66082L15.8928 12.8265L16.9459 20Z" fill="var(--fill-0, white)"/>
<path id="Vector_2" d="M63.8088 20L57.3346 16.7251L50.841 19.9415L51.933 12.768L46.8824 7.58285L54.0391 6.41326L57.4126 0L60.7277 6.43275L67.8844 7.66082L62.7753 12.8265L63.8088 20Z" fill="var(--fill-0, white)"/>
<path id="Vector_3" d="M110.691 20L104.216 16.7251L97.7228 19.9415L98.8149 12.768L93.7643 7.58285L100.921 6.41326L104.294 0L107.61 6.43275L114.766 7.66082L109.657 12.8265L110.691 20Z" fill="var(--fill-0, white)"/>
<path id="Vector_4" d="M157.573 20L151.099 16.7251L144.605 19.9415L145.697 12.768L140.647 7.58285L147.803 6.41326L151.177 0L154.492 6.43275L161.649 7.66082L156.539 12.8265L157.573 20Z" fill="var(--fill-0, white)"/>
<path id="Vector_5" d="M203.926 20L197.452 16.7251L190.959 19.9415L192.051 12.768L187 7.58285L194.157 6.41326L197.53 0L200.845 6.43275L208.002 7.66082L202.893 12.8265L203.926 20Z" fill="var(--fill-0, white)"/>
</g>
</svg>
